<?xml version="1.0" encoding="UTF-8" standalone="no"?>
<!-- Uploaded to: SVG Repo, www.svgrepo.com, Generator: SVG Repo Mixer Tools -->

<svg
   width="800px"
   height="800px"
   viewBox="0 0 48 48"
   id="b"
   version="1.1"
   sodipodi:docname="youtube-vanced-svgrepo-com.svg"
   inkscape:version="1.3.2 (091e20ef0f, 2023-11-25, custom)"
   xmlns:inkscape="http://www.inkscape.org/namespaces/inkscape"
   xmlns:sodipodi="http://sodipodi.sourceforge.net/DTD/sodipodi-0.dtd"
   xmlns="http://www.w3.org/2000/svg"
   xmlns:svg="http://www.w3.org/2000/svg">
  <sodipodi:namedview
     id="namedview3"
     pagecolor="#ffffff"
     bordercolor="#000000"
     borderopacity="0.25"
     inkscape:showpageshadow="2"
     inkscape:pageopacity="0.0"
     inkscape:pagecheckerboard="0"
     inkscape:deskcolor="#d1d1d1"
     inkscape:zoom="0.59"
     inkscape:cx="565.25424"
     inkscape:cy="349.15254"
     inkscape:window-width="766"
     inkscape:window-height="770"
     inkscape:window-x="806"
     inkscape:window-y="62"
     inkscape:window-maximized="1"
     inkscape:current-layer="b" />
  <defs
     id="defs1">
    <style
       id="style1">.c{fill:none;stroke:#000000;stroke-linecap:round;stroke-linejoin:round;}</style>
  </defs>
  <g
     id="g3"
     style="display:inline">
    <path
       class="c"
       d="m 19.4715,31.4951 10.0519,-5.765 c 1.34,-0.7685 1.34,-2.7013 0,-3.4698 L 19.4715,16.4952"
       id="path2"
       style="display:inline" />
    <path
       class="c"
       d="M 25.1025,23.4747 20.37,20.7605 c -0.4,-0.2294 -0.8985,0.0594 -0.8985,0.5205 v 5.4284 c 0,0.4611 0.4985,0.7499 0.8985,0.5205 l 4.7325,-2.7142 c 0.402,-0.2306 0.402,-0.8104 0,-1.0409 z"
       id="path3"
       style="display:inline" />
    <path
       class="c"
       d="M 43.1124,14.394 C 42.6487,12.6706 41.3026,11.3245 39.5792,10.8608 37.2647,9.9672 14.8466,9.5294 8.3434,10.8864 6.6199,11.3501 5.2736,12.6965 4.81,14.42 3.7654,19.003 3.6861,28.9114 4.8356,33.5967 c 0.4638,1.7234 1.81,3.0696 3.5334,3.5333 4.5829,1.0548 26.3712,1.2033 31.2358,0 1.7234,-0.4637 3.0695,-1.8099 3.5332,-3.5333 1.1138,-4.993 1.1931,-14.2867 -0.0256,-19.2027 z"
       id="path1"
       style="display:inline" />
  </g>
</svg>
